<svg xmlns="http://www.w3.org/2000/svg" width="48" height="48" viewBox="0 0 48 48">
  <!-- Shield background -->
  <path d="M24 2 L44 10 L44 22 C44 34 36 42 24 46 C12 42 4 34 4 22 L4 10 Z" fill="#1b1f23" stroke="#58a6ff" stroke-width="1.5"/>
  <!-- GitHub Invertocat silhouette -->
  <g transform="translate(24, 18)" fill="#ffffff">
    <path d="M0-9C-4.97-9-9-4.97-9 0c0 3.98 2.58 7.35 6.16 8.54.45.08.62-.2.62-.43 0-.21-.01-.77-.01-1.51-2.5.54-3.03-1.21-3.03-1.21-.41-1.04-1-1.31-1-1.31-.82-.56.06-.55.06-.55.9.06 1.38.93 1.38.93.8 1.37 2.1.98 2.62.75.08-.58.31-.97.57-1.2-2-.23-4.1-1-4.1-4.45 0-.98.35-1.79.93-2.42-.09-.23-.4-1.14.09-2.38 0 0 .76-.24 2.48.93a8.6 8.6 0 0 1 2.26-.3c.77 0 1.54.1 2.26.3 1.72-1.17 2.48-.93 2.48-.93.49 1.24.18 2.15.09 2.38.58.63.93 1.44.93 2.42 0 3.46-2.1 4.22-4.11 4.44.32.28.61.83.61 1.67 0 1.21-.01 2.19-.01 2.49 0 .24.16.52.62.43C6.42 7.35 9 3.98 9 0 9-4.97 4.97-9 0-9z"/>
  </g>
  <!-- Gear/cog overlay in bottom-right -->
  <g transform="translate(36, 36)">
    <circle cx="0" cy="0" r="7" fill="#1b1f23" stroke="#58a6ff" stroke-width="1"/>
    <path d="M0-6.5 L1-4 L3-5.5 L3-3 L5.5-3 L4-1 L6.5 0 L4 1 L5.5 3 L3 3 L3 5.5 L1 4 L0 6.5 L-1 4 L-3 5.5 L-3 3 L-5.5 3 L-4 1 L-6.5 0 L-4-1 L-5.5-3 L-3-3 L-3-5.5 L-1-4 Z" fill="#58a6ff"/>
    <circle cx="0" cy="0" r="2.5" fill="#1b1f23"/>
  </g>
</svg>